C:\Users\ma86\Desktop\PsoasStudy\Results\MuscGeometrySampling_R.mot														
version=1														
nRows=54														
nColumns=15														
inDegrees=yes														
endheader														
time	pelvis_tilt	pelvis_list	pelvis_rotation	pelvis_tx	pelvis_ty	pelvis_tz	hip_flexion_r	hip_adduction_r	hip_rotation_r	knee_angle_r	knee_angle_r_beta	ankle_angle_r	subtalar_angle_r	mtp_angle_r
750	0	0	0	0	0	0	38.05366433	4.43137013	0.09916316	4.94908514	0	8.96903821	-11.65647768	0
751	0	0	0	0	0	0	41.16302718	12.94079695	19.77948304	31.36835778	0	26.25709589	-0.87185988	0
752	0	0	0	0	0	0	6.9786918	-29.61327409	-8.7602022	35.5379953	0	-36.07075149	-15.71113545	0
753	0	0	0	0	0	0	35.51473308	-7.50489912	-8.25778051	71.69456674	0	-12.57171682	-8.81938202	0
754	0	0	0	0	0	0	-10.32214011	-11.02003565	-12.04037351	75.22763682	0	7.91760425	-8.58477378	0
755	0	0	0	0	0	0	5.07988603	-6.61382978	-17.32431318	45.84283946	0	-34.39807376	6.52402233	0
756	0	0	0	0	0	0	50.515025	13.70442119	11.59136202	55.16961401	0	-18.29651552	-4.59524862	0
757	0	0	0	0	0	0	36.15996942	-20.96663058	16.67365353	68.68578775	0	-9.69102203	-20.27369574	0
758	0	0	0	0	0	0	28.55405602	-20.30190814	-20.23642972	28.45241614	0	23.13835668	5.23922737	0
759	0	0	0	0	0	0	-11.350642	-0.40851474	-25.22401842	68.28803286	0	7.1623416	18.38662878	0
760	0	0	0	0	0	0	15.71184647	-3.10695644	-14.10781338	75.28861749	0	-33.68408108	-17.93379608	0
761	0	0	0	0	0	0	-5.82254371	-4.72805088	-0.16867215	78.32802182	0	-31.41067605	10.28923535	0
762	0	0	0	0	0	0	7.42513566	-3.95003908	4.42550837	55.59942339	0	-9.23374436	1.35022194	0
763	0	0	0	0	0	0	-3.33533114	-4.94774454	-7.9126578	40.93970893	0	-11.39202753	13.55756137	0
764	0	0	0	0	0	0	-11.19709541	12.34648036	8.09030114	16.09236931	0	14.43591395	12.92282794	0
765	0	0	0	0	0	0	46.21363812	-22.41986007	-4.56201132	36.4219724	0	-1.24591162	-7.08545949	0
766	0	0	0	0	0	0	-17.26531103	1.02192482	1.29442737	67.45039015	0	12.71954958	-9.44711037	0
767	0	0	0	0	0	0	-4.88552358	4.51357766	7.62316159	21.04556548	0	-20.68045377	16.28079201	0
768	0	0	0	0	0	0	29.84243266	-13.30404407	-2.97507442	52.82215729	0	19.85273104	-15.23326871	0
769	0	0	0	0	0	0	-9.82545488	-6.56476893	2.56491013	60.84271866	0	-25.09748855	-21.05420036	0
770	0	0	0	0	0	0	50.2560211	10.14823432	1.42342747	30.14310707	0	-1.76962091	17.48909458	0
771	0	0	0	0	0	0	-18.57228841	-25.32202802	1.45952317	62.05987637	0	-34.81599352	-16.93922466	0
772	0	0	0	0	0	0	37.7773727	-12.22968692	-2.0353658	81.15258443	0	0.72740908	-9.19995315	0
773	0	0	0	0	0	0	46.63042715	-25.10766974	-10.53864872	82.03080977	0	25.74892825	9.78703785	0
774	0	0	0	0	0	0	2.21508702	-29.95443126	-5.65286332	54.71253755	0	26.05991998	11.11243216	0
775	0	0	0	0	0	0	-19.56686097	-14.84136651	16.73919962	55.02798255	0	-15.90276584	-19.67637731	0
776	0	0	0	0	0	0	56.80470309	-1.99311006	15.68589077	58.86838688	0	-2.01254852	18.03357981	0
777	0	0	0	0	0	0	59.47980567	-1.37248605	-16.95446988	78.0870007	0	16.14000527	10.6672137	0
778	0	0	0	0	0	0	19.64574789	-9.11818444	-17.03515442	84.10488443	0	12.05751002	-23.3123151	0
779	0	0	0	0	0	0	-15.0583035	4.93545802	-16.86849151	75.14952492	0	9.87988535	17.14006288	0
780	0	0	0	0	0	0	-12.9065293	-14.98642726	17.40251933	77.87902735	0	-10.55347801	-14.16722706	0
781	0	0	0	0	0	0	32.10182517	10.00494662	19.09556407	26.83861943	0	8.72811203	9.43475412	0
782	0	0	0	0	0	0	-16.15319219	-0.84928725	7.5470311	66.76151241	0	-26.33541409	16.32382257	0
783	0	0	0	0	0	0	16.80987099	-7.26505094	-6.41842997	67.22781177	0	15.42774677	9.8319895	0
784	0	0	0	0	0	0	49.97927515	-17.45685982	-0.30263697	25.19947295	0	10.30054101	13.16842975	0
785	0	0	0	0	0	0	43.57044193	-18.4934716	-3.5389257	8.19545712	0	-20.63590162	7.96842925	0
786	0	0	0	0	0	0	-16.46975236	-13.38672972	9.14633617	34.65787019	0	18.64170897	-18.06078252	0
787	0	0	0	0	0	0	15.63947452	-9.71436452	2.30345195	80.00302056	0	10.8344945	19.14051241	0
788	0	0	0	0	0	0	22.33955987	1.800957	-18.10681872	22.85198035	0	18.81880089	19.25776361	0
789	0	0	0	0	0	0	47.7854067	-11.48173508	-20.63297399	73.30879987	0	-10.51076607	-2.23869711	0
790	0	0	0	0	0	0	53.18886016	-5.64122823	1.06788648	13.59398585	0	-16.41277648	-11.4312701	0
791	0	0	0	0	0	0	21.43827755	-2.59492109	-12.50321121	41.73463923	0	-11.10135685	12.54008532	0
792	0	0	0	0	0	0	0.08542222	5.0682631	13.5648843	83.32021779	0	11.49761576	-1.97266929	0
793	0	0	0	0	0	0	11.0086029	-19.18840298	16.81311709	84.33115103	0	22.59537074	-11.06116115	0
794	0	0	0	0	0	0	1.80366678	4.64826171	-23.57600864	18.27201451	0	5.47284069	-10.12526355	0
795	0	0	0	0	0	0	7.30264836	-20.25000496	-28.9110307	13.41030493	0	-13.86283973	7.57287178	0
796	0	0	0	0	0	0	42.64044818	1.3422347	-5.21203357	86.80238923	0	14.61342904	7.07912697	0
797	0	0	0	0	0	0	-10.05612371	-23.07184965	-26.20195372	3.04257061	0	15.47158991	14.00041847	0
798	0	0	0	0	0	0	30.96723795	-4.38807425	6.53223792	50.98098412	0	-31.79194517	1.0332515	0
799	0	0	0	0	0	0	15.8109112	-13.88848378	8.20345336	42.96180078	0	-9.83514198	6.21260995	0
800	0	0	0	0	0	0	9.23480099	12.16676942	-6.92295915	61.66675375	0	18.07257852	-0.18692549	0
801	0	0	0	0	0	0	-4.72434114	-23.04023461	19.94446718	69.45824207	0	13.69507637	6.01114389	0
802	0	0	0	0	0	0	27.62204034	-17.15814649	-4.0654344	34.22838857	0	-33.88665223	-24.54423541	0
803	0	0	0	0	0	0	59.28708683	-21.36566705	-23.24952943	38.43288929	0	-36.27385555	-24.99372614	0
